<svg xmlns="http://www.w3.org/2000/svg" viewBox="0 0 120 40" fill="none">
  <rect width="120" height="40" rx="6" fill="#000000"/>
  <path d="M24.5 12.5c-0.7 0.8-1.8 1.4-2.9 1.3-0.1-1.1 0.4-2.3 1-3.1 0.7-0.9 1.9-1.5 2.8-1.5 0.1 1.2-0.3 2.4-0.9 3.3zm0.9 1.7c-1.6-0.1-3 0.9-3.8 0.9-0.8 0-2-0.9-3.3-0.8-1.7 0-3.3 1-4.2 2.5-1.8 3.1-0.5 7.7 1.3 10.2 0.9 1.2 1.9 2.6 3.3 2.5 1.3-0.1 1.8-0.8 3.4-0.8 1.6 0 2 0.8 3.4 0.8 1.4 0 2.3-1.2 3.2-2.5 1-1.4 1.4-2.8 1.4-2.8s-2.7-1.1-2.8-4.2c0-2.6 2.1-3.9 2.2-4-1.2-1.8-3.1-2-3.8-2.1l0.7 0.3z" fill="white"/>
  <text x="75" y="26" text-anchor="middle" fill="white" font-family="Arial, sans-serif" font-weight="bold" font-size="11">App Store</text>
</svg>